<?xml version="1.0" encoding="utf-8"?>
<!-- Generator: Adobe Illustrator 22.1.0, SVG Export Plug-In . SVG Version: 6.00 Build 0)  -->
<svg version="1.1" id="Layer_1" xmlns="http://www.w3.org/2000/svg" xmlns:xlink="http://www.w3.org/1999/xlink" x="0px" y="0px"
	 viewBox="0 0 340.2 50" style="enable-background:new 0 0 340.2 50;" xml:space="preserve">
<style type="text/css">
	.st0{fill:#FFFFFF;}
</style>
<g>
	<polygon class="st0" points="7.4,2.2 19.1,32.2 31.3,0 43,32.2 55.4,2.2 62.8,2.2 42.7,50 31.2,18.1 19.1,50 0,2.2 	"/>
	<path class="st0" d="M87.6,24.4c0-6.3,2.3-11.8,7-16.3c4.6-4.5,10.2-6.8,16.6-6.8s11.9,2.3,16.5,6.9c4.6,4.6,6.9,10.1,6.9,16.5
		c0,6.5-2.3,11.9-6.9,16.4s-10.2,6.8-16.8,6.8c-5.8,0-11-2-15.6-6C90.2,37.5,87.6,31.6,87.6,24.4 M94.5,24.5c0,5,1.7,9,5,12.2
		s7.1,4.8,11.5,4.8c4.7,0,8.7-1.6,11.9-4.9c3.2-3.3,4.9-7.3,4.9-12c0-4.8-1.6-8.8-4.8-12c-3.2-3.3-7.1-4.9-11.8-4.9
		s-8.6,1.6-11.8,4.9C96.1,15.8,94.5,19.8,94.5,24.5"/>
	<polygon class="st0" points="178,2.2 178,40.7 191.2,40.7 191.2,47.1 171.2,47.1 171.2,2.2 	"/>
	<path class="st0" d="M227.9,24.4c0-6.3,2.3-11.8,6.9-16.3c4.6-4.5,10.2-6.8,16.6-6.8c6.4,0,11.9,2.3,16.5,6.9s6.9,10.1,6.9,16.5
		c0,6.5-2.3,11.9-6.9,16.4s-10.2,6.8-16.8,6.8c-5.8,0-11-2-15.6-6C230.4,37.5,227.9,31.6,227.9,24.4 M234.7,24.5c0,5,1.7,9,5,12.2
		s7.1,4.8,11.5,4.8c4.7,0,8.7-1.6,11.9-4.9c3.2-3.3,4.9-7.3,4.9-12c0-4.8-1.6-8.8-4.8-12c-3.2-3.3-7.1-4.9-11.8-4.9
		s-8.6,1.6-11.8,4.9C236.4,15.8,234.7,19.8,234.7,24.5"/>
	<polygon class="st0" points="318.8,23.6 306.5,2.2 314.2,2.2 322.7,17.4 331.8,2.2 339.5,2.2 326.6,23.6 340.2,47.1 332.6,47.1 
		322.6,29.9 312.4,47.1 304.7,47.1 	"/>
</g>
</svg>
